name rise37.2698peak67.6939fall79.5734.mot
datacolumns 19
datarows 33
range 15.52993800000000 15.58327500000000
endheader
time	ground_force1_vx	ground_force1_vy	ground_force1_vz	ground_force1_px	ground_force1_py	ground_force1_pz	ground_force2_vx	ground_force2_vy	ground_force2_vz	ground_force2_px	ground_force2_py	ground_force2_pz	ground_torque1_x	ground_torque1_y	ground_torque1_z	ground_torque2_x	ground_torque2_y	ground_torque2_z	
15.52993800000000	10.12068100000000	694.83762100000001	41.17988300000000	0.22928300000000	0.00000000000000	0.10401700000000	0.00000000000000	0.00000000000000	0.00000000000000	0.00000000000000	0.00000000000000	0.00000000000000	0.00000000000000	17.22598700000000	0.00000000000000	0.00000000000000	0.00000000000000	0.00000000000000	
15.53161300000000	9.74022600000000	696.31160899999998	41.20626000000000	0.22868000000000	0.00000000000000	0.10396400000000	0.00000000000000	0.00000000000000	0.00000000000000	0.00000000000000	0.00000000000000	0.00000000000000	0.00000000000000	17.28425900000000	0.00000000000000	0.00000000000000	0.00000000000000	0.00000000000000	
15.53327700000000	9.35005400000000	697.84210900000005	41.23712300000000	0.22804800000000	0.00000000000000	0.10391400000000	0.00000000000000	0.00000000000000	0.00000000000000	0.00000000000000	0.00000000000000	0.00000000000000	0.00000000000000	17.34603000000000	0.00000000000000	0.00000000000000	0.00000000000000	0.00000000000000	
15.53494700000000	8.94996600000000	699.42646800000000	41.27232500000000	0.22738800000000	0.00000000000000	0.10386600000000	0.00000000000000	0.00000000000000	0.00000000000000	0.00000000000000	0.00000000000000	0.00000000000000	0.00000000000000	17.41124000000000	0.00000000000000	0.00000000000000	0.00000000000000	0.00000000000000	
15.53662000000000	8.53981100000000	701.06202699999994	41.31172000000000	0.22669800000000	0.00000000000000	0.10382000000000	0.00000000000000	0.00000000000000	0.00000000000000	0.00000000000000	0.00000000000000	0.00000000000000	0.00000000000000	17.47982500000000	0.00000000000000	0.00000000000000	0.00000000000000	0.00000000000000	
15.53827400000000	8.11948300000000	702.74613199999999	41.35515700000000	0.22597900000000	0.00000000000000	0.10377700000000	0.00000000000000	0.00000000000000	0.00000000000000	0.00000000000000	0.00000000000000	0.00000000000000	0.00000000000000	17.55171500000000	0.00000000000000	0.00000000000000	0.00000000000000	0.00000000000000	
15.53993900000000	7.68892200000000	704.47613400000000	41.40248100000000	0.22523000000000	0.00000000000000	0.10373500000000	0.00000000000000	0.00000000000000	0.00000000000000	0.00000000000000	0.00000000000000	0.00000000000000	0.00000000000000	17.62683700000000	0.00000000000000	0.00000000000000	0.00000000000000	0.00000000000000	
15.54161100000000	7.24812000000000	706.24940100000003	41.45353800000000	0.22445300000000	0.00000000000000	0.10369500000000	0.00000000000000	0.00000000000000	0.00000000000000	0.00000000000000	0.00000000000000	0.00000000000000	0.00000000000000	17.70511400000000	0.00000000000000	0.00000000000000	0.00000000000000	0.00000000000000	
15.54327400000000	6.79711100000000	708.06331699999998	41.50817100000000	0.22364800000000	0.00000000000000	0.10365800000000	0.00000000000000	0.00000000000000	0.00000000000000	0.00000000000000	0.00000000000000	0.00000000000000	0.00000000000000	17.78646500000000	0.00000000000000	0.00000000000000	0.00000000000000	0.00000000000000	
15.54493800000000	6.33597800000000	709.91528900000003	41.56622300000000	0.22281500000000	0.00000000000000	0.10362300000000	0.00000000000000	0.00000000000000	0.00000000000000	0.00000000000000	0.00000000000000	0.00000000000000	0.00000000000000	17.87080300000000	0.00000000000000	0.00000000000000	0.00000000000000	0.00000000000000	
15.54662100000000	5.86485100000000	711.80275099999994	41.62753600000000	0.22195500000000	0.00000000000000	0.10358900000000	0.00000000000000	0.00000000000000	0.00000000000000	0.00000000000000	0.00000000000000	0.00000000000000	0.00000000000000	17.95803600000000	0.00000000000000	0.00000000000000	0.00000000000000	0.00000000000000	
15.54827400000000	5.38390300000000	713.72317099999998	41.69195300000000	0.22107100000000	0.00000000000000	0.10355700000000	0.00000000000000	0.00000000000000	0.00000000000000	0.00000000000000	0.00000000000000	0.00000000000000	0.00000000000000	18.04806900000000	0.00000000000000	0.00000000000000	0.00000000000000	0.00000000000000	
15.54993900000000	4.89335300000000	715.67404899999997	41.75931800000000	0.22016200000000	0.00000000000000	0.10352700000000	0.00000000000000	0.00000000000000	0.00000000000000	0.00000000000000	0.00000000000000	0.00000000000000	0.00000000000000	18.14080000000000	0.00000000000000	0.00000000000000	0.00000000000000	0.00000000000000	
15.55161200000000	4.39346200000000	717.65292699999998	41.82947800000000	0.21923000000000	0.00000000000000	0.10349900000000	0.00000000000000	0.00000000000000	0.00000000000000	0.00000000000000	0.00000000000000	0.00000000000000	0.00000000000000	18.23612400000000	0.00000000000000	0.00000000000000	0.00000000000000	0.00000000000000	
15.55327700000000	3.88453300000000	719.65738699999997	41.90228000000000	0.21827700000000	0.00000000000000	0.10347200000000	0.00000000000000	0.00000000000000	0.00000000000000	0.00000000000000	0.00000000000000	0.00000000000000	0.00000000000000	18.33393000000000	0.00000000000000	0.00000000000000	0.00000000000000	0.00000000000000	
15.55493900000000	3.36690900000000	721.68505600000003	41.97757900000000	0.21730500000000	0.00000000000000	0.10344700000000	0.00000000000000	0.00000000000000	0.00000000000000	0.00000000000000	0.00000000000000	0.00000000000000	0.00000000000000	18.43410200000000	0.00000000000000	0.00000000000000	0.00000000000000	0.00000000000000	
15.55661300000000	2.84097200000000	723.73360700000001	42.05523200000000	0.21631600000000	0.00000000000000	0.10342300000000	0.00000000000000	0.00000000000000	0.00000000000000	0.00000000000000	0.00000000000000	0.00000000000000	0.00000000000000	18.53652000000000	0.00000000000000	0.00000000000000	0.00000000000000	0.00000000000000	
15.55827500000000	2.30713800000000	725.80076499999996	42.13510100000000	0.21531100000000	0.00000000000000	0.10340000000000	0.00000000000000	0.00000000000000	0.00000000000000	0.00000000000000	0.00000000000000	0.00000000000000	0.00000000000000	18.64105700000000	0.00000000000000	0.00000000000000	0.00000000000000	0.00000000000000	
15.55994700000000	1.76585900000000	727.88430300000005	42.21705600000000	0.21429200000000	0.00000000000000	0.10337800000000	0.00000000000000	0.00000000000000	0.00000000000000	0.00000000000000	0.00000000000000	0.00000000000000	0.00000000000000	18.74758400000000	0.00000000000000	0.00000000000000	0.00000000000000	0.00000000000000	
15.56162200000000	1.21761800000000	729.98204899999996	42.30097200000000	0.21326100000000	0.00000000000000	0.10335700000000	0.00000000000000	0.00000000000000	0.00000000000000	0.00000000000000	0.00000000000000	0.00000000000000	0.00000000000000	18.85596700000000	0.00000000000000	0.00000000000000	0.00000000000000	0.00000000000000	
15.56328800000000	0.66292900000000	732.09188099999994	42.38673400000000	0.21222000000000	0.00000000000000	0.10333600000000	0.00000000000000	0.00000000000000	0.00000000000000	0.00000000000000	0.00000000000000	0.00000000000000	0.00000000000000	18.96606500000000	0.00000000000000	0.00000000000000	0.00000000000000	0.00000000000000	
15.56493800000000	0.10233200000000	734.21173499999998	42.47423400000000	0.21117200000000	0.00000000000000	0.10331600000000	0.00000000000000	0.00000000000000	0.00000000000000	0.00000000000000	0.00000000000000	0.00000000000000	0.00000000000000	19.07773700000000	0.00000000000000	0.00000000000000	0.00000000000000	0.00000000000000	
15.56661300000000	-0.46361000000000	736.33959800000002	42.56337600000000	0.21011900000000	0.00000000000000	0.10329700000000	0.00000000000000	0.00000000000000	0.00000000000000	0.00000000000000	0.00000000000000	0.00000000000000	0.00000000000000	19.19083400000000	0.00000000000000	0.00000000000000	0.00000000000000	0.00000000000000	
15.56827700000000	-1.03430900000000	738.47351600000002	42.65407200000000	0.20906200000000	0.00000000000000	0.10327800000000	0.00000000000000	0.00000000000000	0.00000000000000	0.00000000000000	0.00000000000000	0.00000000000000	0.00000000000000	19.30520500000000	0.00000000000000	0.00000000000000	0.00000000000000	0.00000000000000	
15.56994300000000	-1.60916200000000	740.61158499999999	42.74624500000000	0.20800300000000	0.00000000000000	0.10325900000000	0.00000000000000	0.00000000000000	0.00000000000000	0.00000000000000	0.00000000000000	0.00000000000000	0.00000000000000	19.42069700000000	0.00000000000000	0.00000000000000	0.00000000000000	0.00000000000000	
15.57160900000000	-2.18754500000000	742.75195799999995	42.83983100000000	0.20694500000000	0.00000000000000	0.10324100000000	0.00000000000000	0.00000000000000	0.00000000000000	0.00000000000000	0.00000000000000	0.00000000000000	0.00000000000000	19.53715200000000	0.00000000000000	0.00000000000000	0.00000000000000	0.00000000000000	
15.57327300000000	-2.76882500000000	744.89284099999998	42.93477600000000	0.20589000000000	0.00000000000000	0.10322200000000	0.00000000000000	0.00000000000000	0.00000000000000	0.00000000000000	0.00000000000000	0.00000000000000	0.00000000000000	19.65440800000000	0.00000000000000	0.00000000000000	0.00000000000000	0.00000000000000	
15.57494400000000	-3.35235600000000	747.03249300000004	43.03104100000000	0.20483900000000	0.00000000000000	0.10320300000000	0.00000000000000	0.00000000000000	0.00000000000000	0.00000000000000	0.00000000000000	0.00000000000000	0.00000000000000	19.77230300000000	0.00000000000000	0.00000000000000	0.00000000000000	0.00000000000000	
15.57661300000000	-3.93748500000000	749.16922199999999	43.12859800000000	0.20379300000000	0.00000000000000	0.10318400000000	0.00000000000000	0.00000000000000	0.00000000000000	0.00000000000000	0.00000000000000	0.00000000000000	0.00000000000000	19.89067100000000	0.00000000000000	0.00000000000000	0.00000000000000	0.00000000000000	
15.57827500000000	-4.52355400000000	751.30138999999997	43.22743300000000	0.20275600000000	0.00000000000000	0.10316500000000	0.00000000000000	0.00000000000000	0.00000000000000	0.00000000000000	0.00000000000000	0.00000000000000	0.00000000000000	20.00934400000000	0.00000000000000	0.00000000000000	0.00000000000000	0.00000000000000	
15.57995300000000	-5.10990400000000	753.42740300000003	43.32754600000000	0.20172800000000	0.00000000000000	0.10314500000000	0.00000000000000	0.00000000000000	0.00000000000000	0.00000000000000	0.00000000000000	0.00000000000000	0.00000000000000	20.12815400000000	0.00000000000000	0.00000000000000	0.00000000000000	0.00000000000000	
15.58160500000000	-5.69587500000000	755.54571699999997	43.42894900000000	0.20071100000000	0.00000000000000	0.10312500000000	0.00000000000000	0.00000000000000	0.00000000000000	0.00000000000000	0.00000000000000	0.00000000000000	0.00000000000000	20.24692900000000	0.00000000000000	0.00000000000000	0.00000000000000	0.00000000000000	
15.58327500000000	-6.28081300000000	757.65482999999995	43.53166900000000	0.19970500000000	0.00000000000000	0.10310400000000	0.00000000000000	0.00000000000000	0.00000000000000	0.00000000000000	0.00000000000000	0.00000000000000	0.00000000000000	20.36550000000000	0.00000000000000	0.00000000000000	0.00000000000000	0.00000000000000	
